<svg width="28" height="28" viewBox="0 0 28 28" fill="none" xmlns="http://www.w3.org/2000/svg">
<rect x="0.000722543" y="0.000722543" width="27.9986" height="27.9986" stroke="#9747FF" stroke-width="0.00144509"/>
<path fill-rule="evenodd" clip-rule="evenodd" d="M13.514 20.7757C11.0856 20.7757 9.10986 18.8064 9.10986 16.3861V9.83817L22.48 9.83789C23.2152 9.83789 23.866 10.2674 24.1403 10.932C24.4173 11.6022 24.2586 12.3711 23.7364 12.8911L23.7066 12.9195L16.4672 19.606C15.6503 20.3603 14.6016 20.7757 13.514 20.7757Z" fill="#31C7AD"/>
<path d="M22.4848 8.74219H22.4786L10.2096 8.74246L8.01416 8.7426V16.3882C8.01416 17.9237 8.62233 19.3396 9.72642 20.3748C10.7436 21.3286 12.1249 21.8756 13.5161 21.8756C14.8805 21.8756 16.1938 21.3567 17.2139 20.4146L24.4535 13.728L24.4835 13.7003L24.5126 13.6713C25.3512 12.8368 25.6042 11.5979 25.1573 10.5152C24.7126 9.43804 23.6636 8.74219 22.4848 8.74219ZM22.4846 10.9377C23.1246 10.9377 23.4083 11.6727 22.9638 12.1152L15.7242 18.8017C15.0676 19.4082 14.2836 19.68 13.5161 19.68C11.8234 19.68 10.2097 18.3588 10.2097 16.3882V10.938L22.4819 10.9377H22.4846Z" fill="white"/>
<path fill-rule="evenodd" clip-rule="evenodd" d="M10.209 16.1934C13.1196 16.1776 15.479 13.8395 15.5311 10.9375L10.209 10.9376V16.1934Z" fill="#005161"/>
<path fill-rule="evenodd" clip-rule="evenodd" d="M10.2081 10.9369H4.79785V10.2945C4.79785 8.79545 6.01323 7.58008 7.51238 7.58008C9.0011 7.58008 10.2081 8.78695 10.2081 10.2758V10.9369Z" fill="#005161"/>
<path d="M7.51297 5.38477C4.80558 5.38477 2.60303 7.58732 2.60303 10.2947V11.5769C2.60303 12.4362 3.29957 13.1327 4.15885 13.1327H9.79703L10.2087 10.9372L12.4042 10.6627V10.276C12.4042 7.57895 10.2101 5.38477 7.51297 5.38477ZM7.51297 7.58032C9.00183 7.58032 10.2087 8.78719 10.2087 10.276V10.9372H4.79858V10.2947C4.79858 8.79556 6.01382 7.58032 7.51297 7.58032Z" fill="white"/>
</svg>
